Coordinates
version=1
nRows=17
nColumns=36
inDegrees=yes

Units are S.I. units (second, meters, Newtons, ...)
If the header above contains a line with 'inDegrees', this indicates whether rotational values are in degrees (yes) or radians (no).

endheader
time	pelvis_tilt	pelvis_list	pelvis_rotation	pelvis_tx	pelvis_ty	pelvis_tz	hip_flexion_r	hip_adduction_r	hip_rotation_r	knee_angle_r	knee_angle_r_beta	ankle_angle_r	subtalar_angle_r	mtp_angle_r	hip_flexion_l	hip_adduction_l	hip_rotation_l	knee_angle_l	knee_angle_l_beta	ankle_angle_l	subtalar_angle_l	mtp_angle_l	lumbar_extension	lumbar_bending	lumbar_rotation	arm_flex_r	arm_add_r	arm_rot_r	elbow_flex_r	pro_sup_r	arm_flex_l	arm_add_l	arm_rot_l	elbow_flex_l	pro_sup_l
      1.74166670	      0.20969788	      0.57533595	      1.61492759	     -0.91014471	      1.24048723	     -0.08168753	     -2.19791050	     -1.60720870	      3.90313906	      0.70197290	      0.01225174	      2.34376125	     -5.42100830	     -7.49999987	     -2.01080553	     -0.30456000	      8.16554505	      0.52046091	      0.00908376	      2.63435426	     -2.60199394	     -7.49999987	     -9.19570286	      0.54520452	     -0.68184085	      7.02765163	     -8.84363135	     16.13597340	     33.13051888	     77.54592205	      6.43193974	     -9.70732537	     17.39252707	     37.04056085	     81.35592672
      1.74583330	      0.29490122	      0.58114186	      1.62299038	     -0.90968550	      1.23988461	     -0.08182192	     -2.33646010	     -1.61337784	      3.88803690	      0.69796297	      0.01218175	      2.29167676	     -5.44473687	     -7.49999987	     -2.12087493	     -0.31138038	      8.20468143	      0.51885251	      0.00905568	      2.53027942	     -2.62581165	     -7.49999987	     -9.29424988	      0.54217178	     -0.70039574	      6.99867257	     -8.83606666	     16.16518475	     33.16038056	     76.24309827	      6.40529491	     -9.73784912	     17.62235680	     37.09432431	     79.77391508
      1.75000000	      0.29924251	      0.58302234	      1.61853539	     -0.91088192	      1.24144897	     -0.08134015	     -2.34660035	     -1.61202241	      3.88791177	      0.69841666	      0.01218967	      2.29213989	     -5.44455849	     -7.49999987	     -2.09390742	     -0.31373492	      8.20572052	      0.56543928	      0.00986878	      2.53162501	     -2.62549443	     -7.49999987	     -9.29457517	      0.54249477	     -0.70021889	      6.99639678	     -8.83774970	     16.16496948	     33.15952514	     76.24330014	      6.40228470	     -9.73750302	     17.62244306	     37.09362710	     79.77417534
      1.75416670	      0.26194668	      0.58072072	      1.69001296	     -0.91071128	      1.24174411	     -0.08206007	     -2.34207607	     -1.61744941	      3.76931904	      0.65621056	      0.01145303	      2.40978072	     -5.17662238	     -7.49999987	     -2.06133788	     -0.32813615	      8.20017615	      0.50395459	      0.00879567	      2.54327942	     -2.42801978	     -7.49999987	     -9.25091485	      0.55670889	     -0.71258372	      6.97284465	     -8.80845688	     16.03793694	     32.96232347	     75.40704475	      6.40368265	     -9.64029374	     17.53090627	     36.88522149	     78.77316175
      1.75833330	      0.23025162	      0.59264799	      1.74681366	     -0.91042761	      1.24149222	     -0.08194442	     -2.34144080	     -1.62950159	      3.79093019	      0.63426975	      0.01107010	      2.35671356	     -5.21939492	     -7.49999987	     -2.00611347	     -0.31245957	      8.21614866	      0.48972667	      0.00854734	      2.53817996	     -2.34334306	     -7.49999987	     -9.20973997	      0.56901306	     -0.72705956	      6.91085494	     -8.81717841	     16.05640225	     32.95958843	     74.62622570	      6.39093700	     -9.58931035	     17.59713331	     36.90235515	     77.85240966
      1.76250000	      0.29423868	      0.58525437	      1.81134722	     -0.90989952	      1.23863497	     -0.08287013	     -2.44264389	     -1.63231472	      3.77915541	      0.61273385	      0.01069422	      2.45258328	     -5.32107772	     -7.49999987	     -2.07040517	     -0.31017316	      8.29967508	      0.48259883	      0.00842294	      2.61499402	     -2.45804878	     -7.49999987	     -9.33405021	      0.60661795	     -0.73092795	      6.91588615	     -8.93403524	     16.29640933	     33.08007901	     74.45753788	      6.39777458	     -9.67492835	     17.93920654	     37.03542002	     77.63333556
      1.76666670	      0.28906201	      0.57857595	      1.83365417	     -0.91000166	      1.24039785	     -0.08347410	     -2.45820154	     -1.64380532	      3.78198014	      0.61550493	      0.01074259	      2.45334421	     -5.32018229	     -7.49999987	     -2.04864079	     -0.29959634	      8.29073503	      0.53654535	      0.00936448	      2.62555889	     -2.46419703	     -7.49999987	     -9.33665215	      0.61400149	     -0.72801413	      6.91412710	     -8.93798659	     16.29550486	     33.07778222	     74.45928268	      6.39127433	     -9.67182656	     17.93946680	     37.03352614	     77.63557881
      1.77083330	      0.27485428	      0.59199684	      1.90399363	     -0.90959409	      1.24066596	     -0.08343295	     -2.50838290	     -1.68776677	      3.76341207	      0.59846672	      0.01044521	      2.48791048	     -5.37014642	     -7.49999987	     -2.08928998	     -0.25838008	      8.18044996	      0.46909400	      0.00818723	      2.86377995	     -2.27829396	     -7.49999987	     -9.25684581	      0.69138048	     -0.73465918	      6.88968672	     -8.96275162	     16.16918440	     32.85844191	     74.58305770	      6.39089086	     -9.50283256	     17.84355125	     36.74975764	     77.79103133
      1.77500000	      0.31675125	      0.58308644	      1.95678990	     -0.90869759	      1.24039025	     -0.08303267	     -2.61135596	     -1.69861801	      3.60362954	      0.58740248	      0.01025211	      2.62858009	     -5.08109914	     -7.49999987	     -2.16740117	     -0.24959637	      8.11179837	      0.46347945	      0.00808924	      3.03360803	     -2.12364368	     -7.49999987	     -9.25759970	      0.75171062	     -0.75179717	      6.83152138	     -8.96614432	     16.03271782	     32.86894823	     74.05795903	      6.32878235	     -9.43227017	     17.76898271	     36.72938578	     77.17865660
      1.77916670	      0.29781919	      0.55836820	      1.98535489	     -0.90851802	      1.23993817	     -0.08292326	     -2.64736650	     -1.68568110	      3.62320601	      0.57781837	      0.01008483	      2.66380811	     -5.05536296	     -7.49999987	     -2.18496160	     -0.25573905	      8.19670513	      0.45738023	      0.00798279	      3.06738662	     -2.31683413	     -7.49999987	     -9.21337014	      0.80038374	     -0.78009089	      6.70376536	     -8.92620909	     15.37153963	     32.97341324	     77.66918882	      6.13950696	     -9.37006761	     16.87953277	     36.91423232	     81.55432900
      1.78333330	      0.30911241	      0.54474881	      1.99669466	     -0.90880085	      1.24114381	     -0.08296062	     -2.68448459	     -1.66681085	      3.68797806	      0.56828793	      0.00991850	      2.64098088	     -5.14461087	     -7.49999987	     -2.23063629	     -0.26599495	      8.17461768	      0.44761266	      0.00781231	      3.13037992	     -2.26959577	     -7.49999987	     -9.20157409	      0.81290490	     -0.78842465	      6.66815143	     -8.91677651	     15.44656431	     32.99307483	     76.88112243	      6.11326920	     -9.40580130	     17.05812975	     36.95122068	     80.59858696
      1.78750000	      0.30686968	      0.53262530	      2.02431801	     -0.90853769	      1.24065882	     -0.08293240	     -2.69676456	     -1.65920119	      3.58681474	      0.56333268	      0.00983201	      2.67711711	     -5.08184957	     -7.49999987	     -2.25028416	     -0.26296525	      8.27897622	      0.43818039	      0.00764769	      3.15472176	     -2.35599533	     -7.49999987	     -9.14671715	      0.82079545	     -0.87903084	      6.67411811	     -8.94657983	     15.53485696	     32.89057092	     76.71761237	      6.07770626	     -9.43073412	     17.12362807	     36.91182415	     80.39648468
      1.79166670	      0.36442995	      0.51741976	      1.93880878	     -0.90802297	      1.24246859	     -0.08262694	     -2.75584507	     -1.63197584	      3.59148905	      0.55106934	      0.00961797	      2.70439662	     -4.90242101	     -7.49999987	     -2.34892630	     -0.29324213	      7.94356532	      0.43078324	      0.00751859	      3.37916036	     -1.70709877	     -7.49999987	     -9.22455482	      0.80714252	     -0.75191227	      6.69616950	     -8.81803821	     15.43103129	     32.80327992	     75.01920875	      6.10930487	     -9.33410268	     17.01863964	     36.75801196	     78.31495370
      1.79583330	      0.37865656	      0.48989154	      1.92907656	     -0.90781373	      1.23821117	     -0.08203003	     -2.78182362	     -1.59193693	      3.51374504	      0.54284214	      0.00947438	      2.71183410	     -4.95053070	     -7.49999987	     -2.40066111	     -0.31662385	      8.16219873	      0.42574863	      0.00743072	      3.36088788	     -2.06653995	     -7.49999987	     -9.21522787	      0.80743411	     -0.85465302	      6.74360075	     -8.80580676	     15.51397704	     32.76492704	     77.37247185	      5.90962650	     -9.40445190	     16.55658166	     37.04040619	     81.40626161
      1.80000000	      0.41812449	      0.48790258	      1.92132574	     -0.90780431	      1.24037242	     -0.08304367	     -2.84810949	     -1.58807662	      3.36492607	      0.54315257	      0.00947980	      2.76094325	     -4.73615673	     -7.49999987	     -2.47829985	     -0.31976912	      8.28474959	      0.42131344	      0.00735331	      3.29640368	     -2.28242024	     -7.49999987	     -9.22559434	      0.81152708	     -0.85627299	      6.68631690	     -8.80749442	     15.44906375	     32.87235983	     76.54417020	      5.87770339	     -9.38175388	     16.55397782	     37.01971451	     80.40380535
      1.80416670	      0.41551053	      0.46473117	      1.86836035	     -0.90951507	      1.23946134	     -0.08262168	     -2.82950691	     -1.55019044	      3.48937101	      0.54058256	      0.00943495	      2.67141085	     -5.09523360	     -7.49999987	     -2.47696173	     -0.33350846	      8.16583304	      0.42089234	      0.00734596	      3.51517128	     -2.08150570	     -7.49999987	     -9.20714861	      0.82252267	     -0.75218954	      6.74378665	     -8.87494023	     15.83146001	     32.83802596	     75.86453582	      5.95714352	     -9.44206625	     16.97152441	     37.03091549	     79.58685961
      1.80833330	      0.41293503	      0.45777680	      1.83016735	     -0.90821984	      1.23952012	     -0.08269901	     -2.79553579	     -1.54514031	      3.44029868	      0.53798187	      0.00938956	      2.68745482	     -5.12474399	     -7.49999987	     -2.47483134	     -0.32037687	      8.17220861	      0.42349081	      0.00739131	      3.55902720	     -2.08926337	     -7.49999987	     -9.21722921	      0.84278792	     -0.73628693	      6.76219657	     -8.86929502	     15.83267936	     32.83860251	     75.87084042	      5.95972903	     -9.43916600	     16.96807174	     37.02777720	     79.59454403
